# xmcd
#
# Track frame offsets:
#	150
#	13813
#	26323
#	42463
#	57275
#	72098
#	87548
#	103712
#	121880
#	136459
#
# Disc length: 2016 seconds
#
# Revision: 0
# Processed by: cddbd v1.5.2PL0 Copyright (c) Steve Scherf et al.
# Submitted via: dBpowerAMP V4.0
#
DISCID=8607de0a
DTITLE=The Doo-Wah Riders - Big Small World
DYEAR=2000
DGENRE=Country
TTITLE0=Livin' in Las Vegas
TTITLE1=She's All Cried Out
TTITLE2=These Hands
TTITLE3=One Little Push
TTITLE4=Think About Thinkin'
TTITLE5=Not So Great Divide
TTITLE6=Goodbye God I'm Goin' To Bodie
TTITLE7=Big Small World
TTITLE8=Eyes of a Storm
TTITLE9=Smokes and a Six Pack
EXTD=
EXTT0=
EXTT1=
EXTT2=
EXTT3=
EXTT4=
EXTT5=
EXTT6=
EXTT7=
EXTT8=
EXTT9=
PLAYORDER=
